<svg xmlns="http://www.w3.org/2000/svg" viewBox="0 0 512 512">
  <defs>
    <linearGradient id="bg" x1="0%" y1="0%" x2="100%" y2="100%">
      <stop offset="0%" style="stop-color:#1e293b"/>
      <stop offset="100%" style="stop-color:#0f172a"/>
    </linearGradient>
    <linearGradient id="plane" x1="0%" y1="0%" x2="100%" y2="100%">
      <stop offset="0%" style="stop-color:#38bdf8"/>
      <stop offset="100%" style="stop-color:#0ea5e9"/>
    </linearGradient>
  </defs>
  <circle cx="256" cy="256" r="248" fill="url(#bg)" stroke="#334155" stroke-width="8"/>
  <g transform="translate(256,256) rotate(-45) translate(-140,-140)">
    <path d="M280 100 L280 180 L200 240 L200 200 L160 220 L160 260 L80 300 L80 260 L40 280 L40 180 L160 140 L160 100 C160 72 184 48 212 48 L228 48 C256 48 280 72 280 100Z" fill="url(#plane)"/>
  </g>
  <circle cx="400" cy="380" r="8" fill="#4ade80" opacity="0.8"/>
  <circle cx="380" cy="400" r="5" fill="#4ade80" opacity="0.5"/>
</svg>
